<svg version="1.1" xmlns="http://www.w3.org/2000/svg" viewBox="0 0 931.4511498046875 463.95703125" width="931.4511498046875" height="463.95703125">
  <!-- svg-source:excalidraw -->
  
  <defs>
    <style>
      @font-face {
        font-family: "Virgil";
        src: url("libs//dist/excalidraw-assets/Virgil.woff2");
      }
      @font-face {
        font-family: "Cascadia";
        src: url("libs//dist/excalidraw-assets/Cascadia.woff2");
      }
    </style>
  </defs>
  <rect x="0" y="0" width="931.4511498046875" height="463.95703125" fill="#ffffff"></rect><g stroke-linecap="round" transform="translate(10 10) rotate(0 385.029296875 221.978515625)"><path d="M0 0 C0 0, 0 0, 0 0 M0 0 C0 0, 0 0, 0 0 M-0.3 6.29 C1.43 4.39, 3.03 2.35, 5.64 0.78 M-0.57 6.3 C0.56 5.14, 2.13 4, 5.17 0.71 M-0.65 12.17 C3.84 7.79, 6.91 6.65, 10.68 0.94 M-0.28 11.51 C3.51 8.21, 6.48 3.95, 9.96 -0.61 M0.21 17.03 C5.18 10.17, 11.7 6, 17.11 0.52 M0.08 18.85 C2.94 14.57, 7.75 9.39, 15.83 -0.6 M1.1 22.63 C4.66 18.62, 11.5 9.3, 22.63 0.93 M0.6 25.02 C5.31 17.13, 12.31 10.73, 20.36 0.41 M1.8 31.44 C6.5 22.39, 10.88 18.57, 25.16 1.78 M-0.98 30.06 C7.96 21.92, 14.2 14.1, 25.44 0.47 M1.56 36.94 C13.94 21.57, 25.44 8.33, 32.17 0.15 M0.34 37.07 C6.96 28.12, 14.2 19.34, 31.72 0.78 M0.05 43.86 C12.96 29.54, 23.99 14.3, 36.46 0.85 M0.74 41.93 C14.2 25.63, 29.45 9.65, 36.07 0.1 M0.43 50.41 C11.67 37.78, 20.56 27.3, 44.47 0.3 M0.53 48.11 C14.78 33.23, 28.57 16.76, 42.85 0.26 M1 52.88 C11.94 42.7, 25.15 27.62, 48.13 0.5 M0.77 54.83 C12.98 41.68, 23.84 27.29, 47.59 0.69 M-0.97 59.69 C15.09 43.6, 31.23 26.58, 53.11 0.95 M0.95 61.72 C15.3 43.08, 32.62 22.55, 52.25 -0.04 M-1.58 67.96 C23.8 42.88, 44.28 14.69, 58.69 0.6 M-0.46 67.04 C15.88 47.58, 32.18 28.81, 58.9 0.32 M0.76 73.77 C26.71 42.84, 51.03 15.25, 62.05 1.77 M1.05 72.44 C20.79 48.59, 43.85 23.35, 62.97 -0.8 M-1.52 80.36 C23.07 50.44, 46.36 24.46, 70.07 0.11 M-0.04 78.81 C16.43 58.35, 35.46 39.57, 68.96 -0.21 M0.43 84.74 C18.2 66.52, 36 46.94, 75.67 0.51 M0.35 85.48 C30.34 50.45, 60.1 17.34, 73.63 0.5 M1.77 89.72 C25.99 63.37, 47.65 37.34, 77.6 -0.93 M0.56 91.85 C27.8 58.14, 56.64 26.13, 79.77 -0.41 M1.58 98.52 C19.4 73.53, 42.36 49.46, 84.77 -0.99 M-1.23 98.55 C25.4 69.33, 51.69 38.47, 85.37 0.58 M-0.04 103.01 C30.23 69.46, 59.7 33.9, 92.02 0.63 M1.04 103.32 C25.28 76.58, 49.81 46.83, 89.38 0.91 M1.14 109.87 C31.65 71.91, 67.21 31.46, 96.52 1.22 M0.23 109.75 C25.27 80.31, 48.86 50.86, 94.89 -0.64 M1.12 117.3 C36.46 77.42, 67.95 39.06, 101.48 1.03 M0.66 115.58 C34.31 76.93, 69.53 35.84, 100.88 0.66 M-0.52 120.92 C41.51 76.16, 83.18 27.03, 104.53 -0.83 M-0.27 121.19 C38.44 79.51, 75.06 34.3, 105.42 -1.03 M-0.95 126.49 C35.12 86.5, 69.81 49.1, 109.52 -0.41 M0.57 127.95 C24.05 99.7, 49.09 72.85, 111.41 0.44 M1.01 132.11 C29.91 99.06, 60.21 61.65, 118.15 -0.26 M0.97 134.91 C27.28 104.54, 52.62 74.27, 117.12 -0.51 M-2.04 140.35 C29.54 104.41, 58.23 70.12, 121.1 0.75 M-0.56 140.69 C41.54 89.39, 86.44 40.04, 121.18 -0.43 M-0.42 144.99 C33.29 109.51, 64.59 69.76, 127.1 -0.35 M0.71 146.65 C47.27 91.31, 95.57 37.45, 126.62 0.95 M-1.37 151.11 C31.36 114.27, 63.9 79.69, 132.59 0.02 M0.46 152.51 C46.6 101.29, 90.65 50.56, 132.42 0.03 M-0.23 157.19 C37.11 114.91, 73.76 71.8, 135.77 0.01 M-0.83 159.51 C39.16 112.05, 79.52 66.55, 138.08 0.78 M-1.48 163.86 C30.93 131.11, 63.37 93.15, 141.94 -1.73 M-0.65 164.6 C55.86 101.12, 110.73 38.12, 142.48 -0.39 M1.29 172.08 C59.01 104.9, 115.41 40.95, 146.91 0.98 M-0.65 170.49 C49.82 113.16, 99.32 57.5, 149.01 0.13 M1.28 176.34 C59.38 108.36, 116.64 40.96, 153.78 -1.33 M-0.29 176.38 C32.91 139.4, 64.99 104.38, 154.32 0.46 M-1.45 184.22 C49.68 125.7, 101.89 64.58, 159.96 1.33 M0.39 182.76 C36.76 142.5, 72.46 100.72, 158.63 0.76 M-0.12 189.03 C56.87 123.14, 113.51 58.61, 163.45 -1.57 M0.36 189.13 C60.65 119.42, 118.7 51.14, 164.82 -0.7 M1.16 195.43 C61.11 122.67, 124.84 51.87, 169.94 -0.02 M-0.25 195.03 C61.37 125.59, 122.49 55.38, 169.9 -0.36 M1.4 200.25 C39.02 154.79, 79.48 106.62, 175.89 0.66 M-0.57 201.91 C55.26 138.98, 109.51 75.69, 174.45 0.12 M1.5 206.57 C48.27 150.51, 95.36 97.91, 179.06 0.74 M-0.1 206.74 C54.66 144.52, 108.85 80.93, 180.38 -0.32 M1.39 212.21 C70.84 131.83, 139.35 51.22, 184.26 -0.21 M0.79 213.88 C64.52 137.06, 130.57 61.23, 185.92 0.08 M-0.66 220.01 C54.87 153.56, 110.26 89.56, 191.02 0.99 M0.13 219.41 C57.3 155.9, 112.09 93.05, 191.36 0.58 M1.29 226.24 C38.9 179.75, 79.39 133.37, 196.91 -0.88 M-0.07 225.26 C57 160.75, 114.28 94.87, 195.77 0.16 M-1.16 232.04 C40.37 185.34, 83.17 136.06, 200.67 -0.03 M0.3 231.28 C66.52 156, 131.33 81.24, 200.75 0.06 M-0.24 236.46 C74.93 154.54, 149.25 69.68, 207.89 -0.54 M-0.29 237.09 C71.9 155.86, 142.99 74.3, 207.4 -0.4 M0 245.11 C64.07 168.16, 128.45 95.22, 210.8 -0.11 M0.6 244.06 C60.78 174.62, 120.65 105.07, 211.3 0.45 M-0.59 249.55 C78.68 159.95, 158.3 67.7, 217.09 0.89 M-0.39 249.82 C59.35 183.7, 118.74 116.54, 216.93 -0.41 M0.29 254.66 C73.69 170.29, 150.87 82.58, 221.41 1.35 M0.46 256.36 C50.12 199.01, 98.46 143.64, 222.39 0.57 M-0.66 262.58 C87.3 160.79, 175.64 58.65, 228.02 -1.06 M-0.58 262.43 C53.77 201.11, 107.17 140.79, 228.31 -0.38 M1.01 267.84 C52.14 205.99, 104.39 144.8, 234.02 -0.21 M0.08 268.08 C54.23 204.6, 108.86 141.41, 233.83 -0.48 M1.06 275.15 C64.14 201.76, 124.12 130.25, 237.56 0.07 M0.07 273.72 C78.69 184.71, 156.11 94.9, 237.97 0.48 M-0.2 281.04 C79.18 188.64, 159.61 96.68, 242.79 0.03 M0.23 280.35 C56.88 215.77, 113.41 151.33, 243.96 -0.24 M-0.64 287.53 C63.12 216.05, 124.29 145.06, 248.24 1.02 M0.18 286.39 C63.56 211.43, 127.71 137.23, 249.01 0.5 M-0.27 292.04 C94.25 187.36, 188.98 78.83, 253.65 -0.89 M0.5 292.96 C91.45 189.23, 183.23 84.1, 254.04 -0.06 M0.54 297.72 C78.79 209.35, 157.4 117.95, 260.04 0.53 M0.11 298.2 C68.93 220.17, 136.43 142.07, 259.98 0.68 M-0.99 305.03 C82.53 208.78, 164.31 112.65, 265.04 0.23 M-0.07 304.78 C92.68 199.73, 184.42 94.62, 264.9 -0.39 M0.57 310.36 C109.05 186.87, 217.42 63.64, 269.87 -0.25 M0.31 310.89 C101.81 191.95, 205.18 73.42, 269.72 0.01 M-0.37 317 C82.13 223.03, 164.88 128.67, 274.81 -0.33 M-0.08 317.3 C108.22 192.04, 215.48 69.34, 275.36 -0.44 M-0.74 323.03 C111.48 196.54, 223.73 69.02, 281.16 1.24 M0.17 322.85 C109.53 198.23, 219.37 72.69, 280.41 0.08 M0.85 329.08 C86.86 228.92, 175.32 126.54, 285.46 -0.49 M0.64 329.04 C74.47 243.15, 148.17 157.56, 286.27 0.06 M0.87 334.76 C107.16 208.84, 215.85 83.51, 291.45 -0.32 M0.23 335.32 C80.55 243.13, 162.06 149.45, 291.42 0.08 M0.14 341.55 C81.92 247.96, 162.11 155.35, 296.36 -0.45 M0.11 341.36 C116.51 206.19, 232.49 71.93, 296.64 -0.52 M-0.74 347.95 C92.16 240.49, 183.89 134.8, 302.23 -0.23 M-0.19 346.94 C107.39 223.28, 215.61 99.02, 302.2 0.6 M0.72 353.92 C121.87 216.33, 243.35 74.96, 307.14 0.58 M-0.47 353.54 C123.03 211.09, 246.08 69.24, 307.3 -0.22 M0.31 360.13 C117.71 222.71, 237.19 87.19, 311.79 0.4 M-0.03 359.78 C112.76 229.29, 225.81 99.65, 312.81 0.22 M0.6 366.53 C69.1 285.5, 138.2 206.3, 318.56 -0.16 M0.33 365.98 C113.33 232.72, 227.36 101.19, 318.26 0.06 M-0.96 371.82 C90.4 268.43, 180.82 165.88, 323.5 0.34 M-0.55 372.17 C110.47 246.91, 220.24 121.24, 323.31 -0.21 M0.13 377.06 C112 246.64, 226.24 117.12, 328.16 -0.77 M0.13 377.88 C104.86 257.48, 210.15 135.68, 328.58 0.08 M-0.25 383.72 C100.02 270.72, 199.55 157.06, 334.33 0.59 M-0.35 384.3 C120.09 245.35, 241.68 106.41, 334.16 -0.17 M0.08 390.19 C110.57 260.07, 223.98 130.9, 339.45 0.31 M0.49 390.02 C68.87 311.65, 137.78 232.65, 339.2 -0.28 M0.69 396.96 C79.78 302.21, 159.98 209.73, 344.56 0.13 M0.26 396.09 C76.95 307.89, 153.82 219.03, 344.23 0.35 M0.32 402.84 C135.38 244.83, 273.27 86.41, 348.94 -0.08 M-0.16 402.54 C105.53 284.17, 209.66 164.59, 349.39 0.04 M-0.59 408.08 C103.35 289.92, 205.28 172.53, 354.95 -0.06 M-0.15 408.05 C121.29 270.19, 241.5 132.14, 355.2 -0.34 M0.07 414.94 C105.78 292.24, 211.22 172.59, 360.89 0.65 M-0.19 414.83 C131.67 264.97, 262.66 114.2, 359.81 0.73 M0.14 420.8 C132.74 268.77, 267.36 113.27, 366.02 0.64 M-0.28 420.7 C87.35 322.02, 174.97 221.59, 365.57 -0.45 M-0.45 426.74 C95.22 318.35, 188.98 211.31, 371.33 0.21 M0.06 426.39 C123.25 286.49, 246.02 144.68, 370.57 0.24 M-0.36 432.61 C143.9 268.48, 287.22 104.74, 375.64 0.12 M-0.21 432.79 C104.42 314.17, 207.26 195.57, 376.67 0.1 M0.17 438.14 C96.63 328.26, 192.6 217.17, 381.14 0.39 M0.55 439.08 C77.48 350.21, 155.17 260.58, 381.06 0.31 M0.74 444.16 C134.79 292.48, 267.82 138.26, 386.27 0.67 M0.46 444.66 C124.72 301.14, 249.83 156.9, 386.65 0.06 M5.2 444.28 C129.13 303.74, 251.03 163.46, 391.33 0.61 M5.7 445 C142.85 288.74, 278.6 132.58, 392.08 0.01 M10.78 444.74 C121.53 318.41, 231.54 190.87, 397.72 0.25 M11.15 444.16 C117.59 321.11, 224.54 197.13, 397.27 -0.33 M16.39 445.14 C109 339.26, 198.77 235.61, 402.31 0.35 M15.9 444.55 C100.76 348.44, 183.66 253.31, 402.25 0.05 M22.27 444 C146.47 302.68, 271.39 160.39, 407.94 -0.37 M21.66 444.32 C157.56 288.36, 293.21 132.05, 407.91 -0.57 M26.8 444.8 C122.93 334.57, 217.3 224.32, 413.01 -0.1 M27.1 444.45 C107.09 352.87, 187.15 261.36, 413.21 0.04 M32.92 444.29 C181.47 274.1, 330.27 103.78, 418.69 0.03 M32.26 444.11 C178.47 273.89, 325.34 105.05, 419.17 -0.24 M36.93 444.93 C170.23 291.64, 304.26 136.65, 423.35 -0.41 M37.73 444.49 C118.46 350.14, 198.67 257.15, 423.63 0.46 M42.98 444.8 C160.65 307.98, 279.3 172.05, 429.84 -0.88 M43.44 444.2 C165.36 303.15, 288.33 161.9, 429.28 -0.27 M48.61 445.23 C196.31 273.84, 345.19 104.49, 435.02 0.61 M47.84 444.72 C155.93 322.51, 262.27 200.16, 434.39 -0.1 M54.48 443.95 C182.11 295.55, 309.59 147.83, 440.27 -0.21 M53.9 444.14 C184.98 291.37, 316.6 140.02, 440.06 -0.11 M59.46 444.25 C195.63 282.84, 334.06 123.24, 445.84 -0.63 M58.68 444.27 C184.6 300.72, 311.31 154.95, 444.97 0.2 M64.01 443.4 C141.38 355.43, 221.03 266.52, 450.18 -0.23 M64.15 444.35 C199.06 290.74, 331.71 137.91, 450.98 -0.5 M70.05 444.98 C200.58 295.9, 329.93 146.43, 455.43 -0.47 M69.14 444.15 C168.15 328.48, 268.1 213.72, 455.5 -0.31 M74.72 444.06 C179.66 323.96, 281.3 206.48, 461.97 -1.17 M75.35 444.13 C169.04 335.89, 262.96 228.07, 461.11 -0.73 M79.91 444.43 C206.28 300.24, 331.85 154.81, 465.94 -0.04 M80.13 444.48 C170.84 341.9, 260.15 238.25, 466.31 -0.02 M85.93 443.67 C232.5 277.65, 376.34 110.26, 470.72 0.34 M85.66 444.48 C191.77 321.97, 298.03 200.36, 471.29 0.16 M89.93 444.05 C245.76 268.12, 399.14 91.95, 476.51 0.4 M90.95 444.82 C237.75 274.55, 386.12 104, 476.76 -0.02 M95.52 444 C246.81 271.69, 397.62 98.18, 482.05 1.02 M96.24 444.47 C210.09 313.04, 323.84 182.31, 482.35 -0.05 M101.57 444.16 C244.27 280.06, 388.1 114.25, 487.22 0.61 M101.35 444.63 C222.01 304.87, 343.45 164.97, 488.02 0.25 M106.46 444.43 C211.52 325.07, 316.61 202.34, 492.98 -0.48 M106.25 444.8 C214.32 321.04, 321.95 196.81, 492.36 0.56 M111.26 444.67 C237.44 297.06, 365.07 150.63, 498.32 -0.41 M111.88 444.46 C190.59 354.53, 267.98 264.65, 498.67 0.25 M117.47 444.49 C268.69 270.82, 419.76 98.04, 503.35 0.56 M116.61 444.39 C204.25 342.53, 291.81 241.85, 503.67 0.63 M122.38 444.36 C240.7 310.33, 356.69 175.92, 509.43 -0.41 M122.73 444.73 C232.56 317.11, 343.45 189.4, 509.14 -0.48 M127.86 444.42 C212.35 350.37, 295.06 255.25, 514.33 0.49 M127.29 444.51 C225.95 331.79, 324.03 217.97, 513.86 -0.1 M133.26 444.83 C276.12 277.38, 421.72 112.19, 520.32 0.47 M133.28 444.55 C283.79 270.81, 434.55 97.79, 519.64 -0.31 M137.76 444.56 C222.06 345.9, 306.87 246.79, 524.51 0.91 M137.97 444.56 C253.06 309.96, 368.95 177.24, 524.9 0.38 M144.43 444.93 C293.17 271.83, 443.17 99.02, 530.14 0.55 M144.15 444.49 C294.38 271.23, 445.95 97.55, 529.84 0.04 M148.25 445.26 C299.35 270.16, 451.27 96.63, 535.38 -0.15 M148.5 444.81 C233.91 346.43, 319.43 248.06, 534.81 0.35 M154.55 444.75 C245.99 336.63, 339.03 231.03, 541.38 -1.02 M154.37 444.63 C289.49 287.2, 425.02 132.13, 540.78 -0.43 M158.99 444.54 C280.86 304.36, 403.09 163.71, 545.85 0.59 M159.37 444.42 C273.05 313.52, 387.96 181.89, 546.01 0.4 M164.45 444.8 C312.98 272.1, 460.72 101.24, 551.12 -0.24 M164.99 444.12 C314.81 271.12, 466.2 97.89, 551.36 -0.26 M170.59 445.22 C280.5 319.08, 389.56 194.71, 556.14 -0.38 M169.71 444.23 C296.35 301.88, 421.57 157.53, 556.15 -0.23 M176.33 443.65 C301.47 300.18, 426.07 157.71, 561.37 -0.3 M175.48 443.97 C258.13 352.27, 338.62 259.68, 561.88 -0.71 M180.62 444.58 C327.77 275.1, 476.04 104.12, 567.08 0.3 M180.83 444.75 C305.8 300.27, 431.18 156.19, 567.29 0 M186.54 443.48 C309.69 305.02, 431.84 166.01, 571.92 -1.13 M186.53 444.31 C330.09 279.38, 473.97 113.92, 572.87 -0.55 M190.84 444.75 C278.04 343.75, 363.53 243.96, 577.63 0.81 M191.09 444.2 C283.66 341.72, 374.14 237.78, 577.52 -0.3 M197.62 444.52 C305.15 318.3, 413.27 194.97, 582.08 0.53 M197.24 443.93 C282.91 348.49, 366.35 251.74, 582.4 0.28 M201.53 443.86 C280.33 354.51, 360.42 262.29, 588.92 -0.24 M201.85 444.44 C283.97 348.93, 367.37 252.91, 588.52 -0.22 M207.83 444.26 C316.91 320.03, 425.46 194.36, 594.06 0.91 M207.95 443.89 C343.82 287.67, 479.54 130.99, 593.16 0.45 M212.37 444.91 C303.62 337.92, 396.92 230.42, 598.66 0.22 M212.29 444.25 C345.36 291.16, 479.32 136.4, 598.83 -0.18 M218.43 444.59 C314.76 332.1, 411.97 219.81, 603.5 0.94 M218.19 443.95 C353.67 286.45, 489.87 129.55, 604.06 0.6 M223.17 443.72 C315.67 338.37, 409.76 230.23, 609.89 -0.72 M223.03 444.47 C349.18 297.95, 476.3 151.9, 609.78 0.06 M227.37 445.42 C329.46 325.97, 432.18 207.85, 614.02 0.83 M228.07 444.5 C333.39 324.63, 438.17 204.54, 614.9 -0.13 M233.14 444.17 C320.59 345.51, 407.32 244.3, 620.64 0.07 M234.07 444.42 C379.76 275.57, 528.04 105.96, 620.32 0.26 M239.13 444.02 C337.76 331.17, 436.09 216.96, 624.63 0.03 M238.89 444.75 C362.99 302.86, 485.8 160.31, 625.3 0.3 M244.81 444.54 C331.54 347.26, 416.42 248.62, 631.09 -0.23 M244.47 444.71 C379.21 290.57, 513.11 136.32, 630.64 0.04 M248.79 445.17 C371.13 304.65, 491.45 165.75, 635.3 -0.37 M249.59 444.45 C400.18 271.56, 550.88 98.15, 635.89 0 M255.31 444.78 C389.34 287.66, 525.2 132.36, 641.19 -0.03 M255.09 444.43 C404.21 272.89, 553.45 101.55, 641.72 0.1 M259.84 444.51 C403.99 278.4, 550.65 109.83, 646.14 -0.04 M259.79 444.48 C391.44 295.16, 522.41 143.44, 646.33 -0.04 M265.12 444.07 C399.62 286.97, 536.66 130.62, 651.44 -0.47 M265.79 443.95 C372.41 319.57, 480.65 195.12, 651.79 -0.58 M269.94 444.56 C405.9 288.04, 541.7 132.19, 656.66 -0.21 M270.33 444.8 C385.77 309.54, 501.39 176.61, 657.28 0.46 M275.66 444.81 C376.5 329.32, 478.01 213.75, 662.12 0.13 M276.69 444.52 C402.04 296.76, 528.93 150.5, 663.07 -0.32 M281.32 444.23 C429.2 274.65, 576.66 105.27, 668.1 0.3 M281.27 444.85 C425.3 280.63, 567.42 116.39, 667.65 -0.14 M286.95 443.87 C411.71 303.78, 535.98 161.64, 674.06 -0.91 M286.89 443.88 C385.5 329.05, 484.48 214.68, 673.41 0.02 M291.95 444.5 C438.59 273.55, 586.26 105.22, 677.87 -0.45 M292.28 444.75 C412.91 304.75, 535.29 164.58, 678.14 -0.21 M298.34 444.52 C403.13 320.62, 508.45 199.15, 684.65 -0.23 M297.33 443.83 C414.18 307.72, 532.92 172.27, 683.89 -0.13 M302.77 444.38 C422.41 306.65, 540.9 169.23, 688.36 -0.39 M302.25 444.92 C410.63 321.17, 519.05 195.6, 689.28 -0.02 M307.77 444.5 C417.73 319.89, 524.77 196.66, 695.06 -0.45 M307.97 444.27 C437.65 294.38, 568.38 143.55, 694.38 -0.66 M313.71 444.91 C421.31 319.98, 529.01 195.06, 699.7 -0.6 M312.9 444.82 C420.52 323, 526.84 200.7, 699.42 0.22 M318.92 444.77 C467.15 271.46, 618.26 99, 703.94 1.04 M318.98 444.38 C448.91 294.58, 579.64 144.17, 704.95 0.38 M324.43 445.18 C427.85 325.66, 532.78 206.77, 710.59 0.25 M323.57 444.24 C431.43 320.27, 539.12 196.26, 709.92 0 M329.24 443.93 C432.15 328.16, 532.67 210.7, 715.69 0.18 M329.54 443.81 C449.22 306.44, 568.51 169.89, 715.63 0.15 M335.15 444.71 C488.49 267.94, 642.89 90.57, 720.7 0.37 M334.79 444.41 C468.91 291.89, 602.02 138.51, 720.76 -0.32 M339.7 444.58 C443.23 322.89, 548.55 202.92, 726.1 -0.36 M339.22 444.65 C481.96 280.08, 625.05 114.59, 726.1 -0.05 M345.89 444.24 C443.46 331.76, 540.66 219.39, 731.46 0.38 M344.75 444.47 C456.53 313.92, 568.76 185.1, 731.76 0.11 M350.18 444.67 C499.17 275.05, 647.15 104.63, 736.99 0.18 M350.15 444.83 C454.6 323.22, 559.82 201.93, 736.34 0.23 M355.59 444.99 C498.34 283.05, 639.68 121.52, 742.05 -0.66 M356.02 444.23 C435.39 351.81, 517.11 257.92, 742.14 -0.19 M361.17 444.49 C463.26 325.59, 568.14 205.54, 746.71 0.56 M360.33 444.58 C467.97 322.71, 574.52 200.12, 747.12 0.1 M366.17 444.57 C492.06 300.29, 618 155.26, 753.42 0.36 M366.43 444.57 C506.33 281.82, 648.22 119.37, 752.53 0.19 M370.76 444.37 C454.34 348.14, 538.28 251.81, 757.4 0.01 M371.42 444.7 C472.37 325.96, 574.46 208.33, 758.04 0.15 M376.92 444.27 C483.03 319.13, 591.89 194.7, 762.7 0.17 M376.58 444.68 C487.07 317.14, 599.12 188.94, 763.79 -0.46 M381.22 444.72 C462.42 353.28, 540.94 261.47, 767.76 0.58 M382.1 444.45 C478.38 335.62, 572.67 226.51, 768.73 0.48 M386.89 444.98 C474.03 343.45, 561.79 242.86, 771.58 1.82 M387.93 444 C496.99 318.12, 605.84 193.69, 772.25 2.09 M393.39 445.15 C478.33 346.93, 563.44 249.46, 772.09 7.53 M392.49 444.37 C483.2 337.18, 576.1 230.85, 772.65 7.77 M398.88 444.86 C517.88 306.82, 636.97 169.79, 771.75 13.66 M398.34 444.27 C517.29 306.2, 636.47 169.34, 772.22 14.24 M402.64 445.33 C538.66 290.4, 673.52 134.34, 771.38 20.72 M402.9 444.29 C479.17 359.37, 554.2 272.77, 771.85 20.82 M409.06 444.88 C541.49 292.52, 674.94 138.85, 771.74 25.93 M408.89 444.31 C532.21 302.53, 656.38 158.91, 772.17 26.3 M414.12 444.16 C534.03 304.46, 653.94 166.09, 772.04 31.87 M413.48 444.52 C518.63 323.96, 623.17 204.17, 772.03 32.11 M418.97 444.87 C536.88 307.56, 654.99 173.03, 772.51 38.73 M419.49 444.41 C546.98 294.93, 676.07 146.6, 772.22 38.5 M424.36 443.79 C540.82 312.65, 656.5 179.67, 772.79 43.96 M424.58 444.64 C560.77 286.6, 697.4 129.7, 772.24 44.39 M429.9 444.29 C508.56 350.98, 590.17 258.22, 771.34 50.53 M430.04 444.36 C555.87 298.95, 682.71 152.79, 771.67 50.69 M434.83 443.98 C558.42 303.25, 681.38 162.21, 771.91 56.42 M434.78 444.72 C508.02 361.72, 580.67 277.45, 772.59 56.35 M440.51 444.62 C521.56 348.45, 604.74 253.39, 771.61 62.4 M440.9 443.81 C512.93 362.31, 584.32 280.02, 772.01 62.92 M446.38 444.55 C557.51 315.11, 668.15 186.41, 772.29 68.35 M446.08 444.11 C572.16 300.31, 697.72 154.98, 772.42 68.56 M450.14 444.55 C580.08 296.54, 707.41 148.02, 771.72 75.29 M450.96 445.07 C554.17 325.41, 657.19 206.35, 772.58 74.8 M456.82 444.56 C578.41 304.74, 700.21 164.65, 771.9 81.62 M456.3 444.25 C566.86 316.21, 677.37 189.03, 771.59 81.43 M460.69 444.1 C545.7 348.3, 630.56 252.91, 771.67 87.89 M461.51 444.83 C581.95 306.76, 701.21 168.34, 771.92 86.89 M466.35 444.72 C565.38 332.38, 662.02 222.17, 772.05 93.91 M466.63 444.24 C552.79 345.78, 637.45 248.47, 772.06 93.34 M471.97 445.52 C559.91 341.38, 647.24 239.08, 771.65 99.54 M471.85 444.76 C554.91 351.93, 636.37 257.95, 772.63 99.47 M477.4 444.96 C585.19 320.97, 690.84 198.7, 772.74 105.41 M477.41 444.55 C583.14 324.94, 687.32 204.53, 772.54 105.76 M483.26 445.21 C561.35 355.92, 639.05 267.99, 772.42 112.2 M482.44 444.88 C574.65 340.94, 664.66 235.73, 771.65 111.78 M488.05 445.23 C560.53 361.89, 633.65 278.94, 772.41 117.07 M488.32 444.81 C568.75 349.11, 650.38 254.25, 772.29 117.88 M493.31 444.55 C559.79 369.72, 623.96 293.33, 773.05 124.87 M492.87 444.53 C554.76 374.76, 615.68 304.65, 772.3 124.2 M498.31 444.48 C587 341.63, 674.43 240.35, 772.09 130.62 M498.68 444.15 C557.03 378.54, 614.09 313.01, 772.01 129.6 M503.63 443.66 C612.12 321.1, 719.36 196.8, 771.45 136.75 M504.28 444.93 C602.55 332.23, 699.86 219.63, 772.25 135.5 M509.55 443.72 C566.03 377.77, 623.84 312.56, 772.04 141.6 M509.13 443.87 C606.27 334.8, 701.01 225.19, 771.96 141.97 M513.39 444.46 C569.59 382.41, 625.86 319.46, 773.11 147.18 M514.59 444.51 C591.44 356.53, 667.57 268.83, 772.7 147.48 M521.28 443.08 C615.79 332.41, 712.7 222.79, 773.14 154.74 M520.16 443.94 C575.44 379.71, 631.35 314.74, 771.62 154.86 M524.88 445.09 C596.04 363.43, 666.04 283.16, 771.53 160.3 M525.6 444.83 C581.78 380.5, 637.92 315.05, 773.02 159.95 M531.93 445.24 C615.65 343.76, 703.2 243.75, 771.33 165.31 M530.24 444.4 C621.02 340.47, 712.26 235.53, 771.86 166.13 M535.36 445.25 C604.24 365.79, 673.15 289.12, 771.21 172.96 M535.67 444.38 C619.82 349.77, 702.1 254.84, 771.47 172.97 M542.46 444.35 C613.89 360.51, 687.12 276.57, 771.29 177.84 M541.11 444.79 C595.07 382.5, 648.32 322.58, 772.6 178.64 M545.17 445.31 C600.34 383.81, 653.82 322.47, 773.27 184.4 M546.21 443.87 C616.8 362, 688.46 280.17, 772.44 184.32 M552.99 444.37 C617.53 366.55, 684.47 290, 772.74 191.67 M552.53 444.7 C622.79 365.58, 693.02 284.5, 772.42 190.81 M557.04 445.1 C601.32 395.67, 644.87 346.39, 771.55 197.65 M557.53 444.56 C634.28 356.43, 711.36 268.14, 771.71 197.51 M563.9 443 C643.69 352.19, 722.74 262.02, 772.87 201.93 M562.45 444.48 C645.32 350.86, 724.74 258.15, 772.55 202.76 M566.61 445.21 C611.98 394.48, 655.65 343.17, 772.79 209.76 M567.87 444.9 C645.24 355.35, 721.35 266.91, 772.63 208.74 M573.83 444.24 C638.78 371.18, 702.88 296.08, 772.93 214.47 M572.63 445.49 C633.89 373.78, 694.65 304.41, 772.14 215.69 M577.25 445.64 C649.6 361.38, 722.4 281.17, 773.27 221.8 M578.19 445.04 C620.49 394.3, 664.34 343.61, 772.83 220.42 M583.6 445.84 C641.71 376.22, 699.75 309.02, 773.28 227.32 M583.82 444.76 C654.11 362.38, 725.14 281.52, 771.87 227.18 M587.8 444.16 C639.5 386.01, 691.48 324.77, 772.95 232.76 M588.87 444.96 C634.89 390.67, 682.39 337.06, 772.41 233.22 M593.85 444.65 C631.69 397.15, 671.76 355.04, 771.5 239.75 M593.55 444.67 C665.56 362.98, 735.85 282.94, 771.75 238.85 M599.64 443.85 C645.42 390.35, 693.92 337.8, 770.99 247.15 M598.82 443.6 C666.28 369.14, 731.2 295.89, 771.59 246.44 M603.18 444.37 C656.5 380.93, 711.72 318.94, 772.44 251.8 M604.25 444.84 C638.23 405.17, 672.88 364.66, 772.62 250.69 M608.91 445.87 C669.77 373.76, 730.52 307.98, 772.84 259.52 M610.89 444.44 C667.4 377.95, 725.71 310.31, 772.23 258.65 M615.35 445.96 C650.58 407.37, 682.74 368.42, 770.44 263.53 M615.83 444.98 C670.75 381.36, 727.07 317.79, 771.51 264.02 M620.91 443.94 C665.75 395.63, 707.17 348.76, 772.21 271.34 M621.61 443.56 C675.01 382.38, 731.01 318.19, 771.7 270.08 M624.59 445.4 C669.99 397.12, 711.53 346.91, 772.7 277.03 M626.01 444.08 C656.93 410.42, 687.24 375.13, 771.4 276 M632.36 445.92 C669.35 402.07, 706.08 356.63, 771.08 280.91 M631.45 444.99 C687.98 378.44, 743.3 314.71, 772.76 281.16 M637.23 445.34 C666.71 405.45, 701.94 368.51, 774.01 289.19 M636.31 444.73 C672.01 403.55, 709.1 361.14, 771.85 288.29 M642.7 445.57 C674.47 408.08, 703.61 372.94, 771.33 296.32 M642.86 444.98 C677.64 403.86, 710.91 364.92, 772.03 294.2 M645.98 443.27 C693.05 390.73, 742.32 338.96, 774.34 300.34 M646.08 445.54 C680.03 409.05, 710.77 373.02, 772.18 299.74 M652.32 443.71 C683.73 411.44, 714.13 375.67, 772.22 305.03 M651.78 444.3 C678.77 414.58, 703.51 386.43, 771.96 306.06 M656.58 444.44 C692.18 407.47, 724.25 370.22, 772.42 313.85 M657.35 444.83 C701.05 393.82, 743.97 345.55, 771.67 311.79 M661.53 445.31 C691.79 414.33, 715.71 384.45, 770.63 318.04 M664.03 444.95 C692.35 410.6, 722.02 375.33, 772.86 318.59 M667.76 444.45 C709.49 396.5, 750.17 350.76, 772.52 323.26 M667.57 444.25 C699.48 408.96, 731.08 372.2, 771.95 324.38 M675.91 444.15 C701.33 409.67, 728.27 381.48, 770.73 329.82 M674.48 444.57 C710.51 402.14, 745.37 363.24, 772.19 331.18 M680.55 442.88 C698.8 419.44, 717.3 398.26, 772.07 338.83 M678.76 443.64 C697.65 424.34, 714.83 401.08, 772.68 337.88 M683.79 445.89 C712.29 413.8, 736.17 383.49, 773.08 344.93 M683.42 444.23 C712.56 411.52, 739.89 379.29, 772.95 342.47 M688.4 445.45 C714.15 415.98, 736.91 391.09, 771.93 350.18 M690.5 444.05 C713.11 418.73, 735.28 392.12, 772.62 348.64 M692.88 443.01 C724.77 409.09, 753.09 378.06, 772 356.78 M694.11 444.45 C719.26 414.76, 743.37 386.53, 772.04 356.01 M699.15 445.92 C728.71 411.78, 758.59 381.28, 773.03 361.26 M700.92 444.74 C717.26 426.21, 734.32 406.94, 773.23 360.94 M704.32 445.33 C724.26 424.04, 739.56 405.2, 772.18 366.63 M705.92 444.71 C723.34 423.47, 742.01 402.17, 771.89 368.31 M709.05 444.17 C734.15 415.5, 761.04 388.03, 773.71 373.12 M711.66 444.16 C722.89 429.55, 735.61 413.73, 772.99 372.78 M717.33 443.05 C731.04 429.26, 743.31 412.43, 770.75 378.07 M715.92 445.45 C736.12 423.18, 755.21 399.99, 771.48 380.35 M720.78 444.19 C733.18 432.34, 745.35 417.91, 771.04 386.66 M720.96 444.98 C735.03 429.91, 747.72 413.97, 771.82 385.61 M726.51 445.41 C741.47 428.67, 751.16 413.79, 773.91 392.05 M727.22 443.79 C738.73 429.67, 753.5 414.78, 772.01 391.55 M733.39 444.03 C739.34 433.52, 750.11 425.89, 773.48 397.61 M732.56 445.04 C742.51 432.65, 752.35 421.3, 772.6 398.33 M735.89 442.8 C747.47 432.44, 756.96 421.99, 774.24 405.59 M737.96 444.57 C749.44 430.81, 760.11 417.83, 773.23 403.54 M744.36 445.86 C748.05 438.24, 757.13 430.03, 770.93 411.06 M742.77 444.42 C755.1 431.65, 766.97 416.96, 772.34 410.79 M748.89 444.66 C757.23 433.18, 764.02 425.5, 772.11 418.59 M748.37 445.35 C755.07 436.82, 761.06 429.55, 771.77 415.91 M751.57 445.92 C759.36 438.68, 762.57 434.02, 771.34 420.43 M753.45 444.38 C759.6 437.52, 765.48 430.36, 771.72 421.8 M758.35 445.55 C763.55 442.27, 766.87 434.76, 772.22 428.75 M757.68 445.35 C763.78 438.93, 768.17 432.53, 772.78 428.18 M763.58 444.41 C766.23 442.38, 767.93 438.31, 772.8 435.05 M764.59 444.31 C766.06 442.12, 769.11 438.74, 772.44 435.42 M768.86 444.18 C769.78 442.62, 771.11 442.13, 772.63 441.11 M769.04 444.54 C769.99 443.77, 770.67 442.64, 772.44 440.91" stroke="#ced4da" stroke-width="0.5" fill="none"></path><path d="M-0.07 0.04 C283.73 0.1, 568.86 -0.38, 769.35 0.55 M-0.24 0.26 C261.71 2.01, 523.13 1.38, 770.35 0.35 M769.87 -0.51 C768.3 119.21, 769.43 239.81, 770.43 444.92 M769.81 0.25 C768.04 169.07, 768.3 338.79, 769.82 443.91 M769.89 444.36 C489.09 445.2, 206.9 444.33, -0.14 444.22 M770.37 443.98 C602.03 443.47, 433.32 443.33, -0.17 444.31 M0.62 443.93 C-0.96 344.83, -0.48 243.98, -0.48 0.72 M0.3 444.31 C1.83 299.62, 1.24 155.41, -0.43 -0.21" stroke="#000000" stroke-width="1" fill="none"></path></g><g stroke-linecap="round" transform="translate(212.37109375 113.04296875) rotate(0 183.572265625 69.8203125)"><path d="M0 0 C0 0, 0 0, 0 0 M0 0 C0 0, 0 0, 0 0 M-0.28 6.85 C1.53 4.7, 3.04 3.12, 5.6 -0.28 M-0.62 6.45 C2.07 3.75, 3.9 1.58, 5.11 0.54 M0.58 12.37 C4.07 8.92, 7.16 2.5, 10.12 -0.41 M0.74 12.15 C3.46 9.24, 5.41 6.56, 10.94 0.64 M-1.86 20.42 C4.26 14.51, 7.47 11.77, 14.49 -1.37 M-0.93 17.85 C5.78 11, 10.8 4.86, 16.1 -0.29 M1.57 24.04 C4.02 20.59, 7.37 14.33, 20.08 -1.82 M0.46 23.72 C3.8 18.05, 8.81 14.11, 21.11 0.01 M1.27 31.23 C10.96 18.17, 20.21 9.24, 27.13 0.85 M-0.77 31.23 C6.55 22.16, 13.33 15.61, 25.39 1.26 M-2.05 35.83 C8.92 26.13, 17.4 19.33, 32.71 -2.04 M0.11 36.35 C7.76 28.13, 16.9 18.38, 32.23 -0.41 M-0.14 41.81 C11.34 28.28, 22.04 14.13, 38.3 -0.57 M0.47 43.38 C13.59 27.39, 27.36 12.26, 36.64 0.22 M1.87 49.47 C14.86 32.04, 29.08 15.33, 42.19 1.66 M-0.78 49.74 C15.86 30.98, 31.63 13.32, 42.52 -0.97 M1.12 56.09 C15.73 36.89, 34.69 17.96, 47.26 1.5 M-0.51 54.23 C17.03 35.99, 32.01 18.6, 48.4 1.05 M0.83 61.94 C18.79 42.13, 33.61 20.93, 53.26 0.18 M0.23 61.57 C19.72 39.02, 38.44 16.76, 52.65 0.02 M-2.02 66.87 C23.37 40.94, 44.75 14.2, 56.69 1.26 M-1.13 66.67 C22.85 42.4, 45.67 15.57, 57.23 0.92 M-1.63 72.58 C11.59 56.18, 26.7 42.96, 63.04 -1.47 M0.27 73.43 C14.33 56.35, 30.23 39.63, 62.85 -0.54 M1.76 78.76 C25.84 47.33, 55.11 18.81, 70.67 2 M0.72 78.52 C21.98 53.8, 45.95 25.37, 68.76 0.69 M-0.54 85.81 C17.66 67.59, 34.28 47.16, 75.07 -2.2 M-0.46 84.63 C17.35 64.74, 37 43.01, 73.91 0.44 M0.21 90.75 C32.62 54.2, 64.14 20.4, 80.69 -1.86 M-0.27 92.05 C25.17 61.48, 51.4 30.34, 78.68 -0.06 M-0.2 97.91 C18.37 75.36, 33.87 57.31, 85.28 1.2 M-0.39 97.92 C21.05 72.02, 43.05 48.14, 84.13 -0.74 M-1.85 103.14 C23.28 79.76, 47.5 50.84, 91.65 1.14 M0.77 104.02 C27.53 69.15, 57.01 34.73, 89.69 -0.06 M-1.53 107.99 C38.88 64.7, 77.37 20.58, 96.03 -0.01 M-0.92 109.53 C34.04 69.8, 68.09 32.19, 96.39 0.42 M-1.19 116.35 C32.16 78.43, 63.03 40.11, 99.85 1.6 M1.27 115.35 C21.02 90.91, 41.57 67.71, 100.57 0.67 M-0.01 120.49 C25.31 89.81, 55.03 58.31, 106.07 -0.44 M0.63 122.61 C25.13 92.43, 49.94 61.21, 107.11 -0.36 M1.16 129.64 C36.93 82.38, 76.15 39.34, 110.99 -0.82 M-0.44 128.95 C32.27 92.6, 62.92 57.46, 111.14 -0.18 M-1.06 132.22 C26.42 105.12, 51.72 78.67, 115.91 2.14 M0.62 133.29 C31.81 100.2, 60.19 66.41, 116.59 -0.44 M1.19 139.33 C29.53 108.08, 55.24 75, 122.2 0.67 M1.14 138.9 C43.92 88.39, 89.19 37.22, 121.24 -0.23 M6.58 141.05 C49.02 91.83, 89.76 41.33, 128.42 1.78 M4.75 140.35 C45.13 93.17, 85.3 49.7, 126.66 -0.21 M9.89 140.31 C37.47 111.5, 62.2 80.05, 131.98 1.91 M11.6 138.94 C49.23 97.33, 86.73 54.47, 131.79 0.61 M14.27 139.95 C53.99 99.25, 89.16 58.81, 138.92 -1.1 M16.46 140.32 C45.18 108.67, 74.83 74.89, 137.7 0.41 M22.26 140.68 C54.96 99.96, 88.08 64.65, 142.26 1.87 M22.71 140.13 C54.5 99.9, 88.96 61.3, 143.75 -0.88 M27.59 139.05 C70.02 89.39, 112.78 41.22, 147.79 -0.76 M26.04 140.47 C67.64 92.07, 111.45 41.71, 148.34 -0.07 M30.89 140.08 C80.05 83.58, 128.09 29.84, 152.39 0.6 M31 140.19 C64.12 103.66, 93.53 68.4, 153.11 -0.19 M38.74 139.51 C79.78 90.16, 121.32 41.05, 157.82 0.67 M38.04 139.71 C73.86 97.94, 112.07 53.98, 159.71 1.07 M40.77 139.97 C73.86 102.1, 106.84 65.48, 165.09 1.24 M41.48 140.77 C84.79 92.74, 125.04 44.24, 163.93 -0.13 M47.33 141.62 C95.36 82.29, 142.78 29.03, 168.2 -0.89 M47.08 139.7 C84.01 98.38, 120.14 54.97, 168.51 -0.24 M51.29 142.17 C96.76 84.77, 145.92 34.33, 176.51 0.03 M52.77 140.99 C85.63 104.16, 117.2 66.39, 175.3 0.2 M58.38 138.73 C97.45 91.65, 139 44.3, 180.52 -1.39 M58.82 139.77 C84.61 110.05, 111.94 80.01, 180 0.11 M64.94 139.83 C102.14 97.18, 141.54 50.37, 186.21 0.3 M64.65 139.4 C96.69 101.74, 130.48 65.88, 186.36 0.4 M68.31 139.3 C106.91 98.52, 141.9 57.87, 188.8 1.29 M68.96 139.96 C103.93 101.51, 136.95 62.13, 190.95 -0.53 M72.6 140.22 C108.8 98.45, 144.09 61.23, 195.13 -1.53 M74.5 139.79 C101.49 108.13, 128.95 77.38, 197.31 -0.21 M78.97 140.88 C118.67 96.41, 158.97 49.25, 201.43 1.37 M80.25 140.01 C107.09 109.38, 131.74 79.9, 200.71 -0.63 M83.54 138.68 C132.56 85.17, 176.33 34.41, 207.65 -1.93 M84.2 140.11 C122.38 97.86, 159.16 53.96, 206.37 0.36 M91.59 140.11 C131.32 89.94, 174.74 42.38, 211.25 -0.82 M91.49 140.38 C128.86 98.25, 166.17 53.68, 212.16 0.54 M95.46 140.65 C137 93.43, 175.6 49.35, 217.53 -0.29 M95.21 139.54 C136.8 91.37, 176.85 45.41, 216.83 -0.15 M100.81 138.73 C129.89 108.07, 157.63 76.89, 221.47 -0.89 M100.53 139.2 C137.66 97.61, 174.07 54.25, 222.73 -0.07 M104.47 139.67 C145.9 94.08, 183.98 50.48, 229.96 -0.91 M105.51 139.46 C135.85 105.94, 162.62 72.97, 228.02 -1.35 M112.69 141.58 C151.48 95.12, 186.38 53.25, 231.71 -0.33 M111.26 139.35 C151.67 91.99, 192.38 45.2, 233.4 -0.33 M115.05 139.35 C160.61 89.02, 208.05 37.89, 238.85 1.77 M116.66 140.45 C159.43 92.75, 201.48 44.52, 237.67 -0.35 M122.68 138.57 C154.84 104.41, 186.02 68.03, 244.03 -0.53 M122.61 139.36 C169.28 83.87, 217.06 29.64, 243.7 0.11 M126.13 139.44 C158.27 108.51, 185.98 77.6, 247.51 2.14 M126.73 139.29 C169.82 92, 211 43.12, 249.5 0.16 M133.65 138.73 C162.8 109.3, 187.86 75.38, 252.85 -0.82 M133.58 140.51 C164.21 105.64, 192.01 72.21, 254.7 0.8 M137.03 141.74 C187.13 85.77, 235.1 27.91, 258.68 1.93 M137.37 139.97 C174.87 98.02, 211.49 55.21, 260.33 -0.55 M141.21 140.93 C178.95 99.32, 213.64 56.73, 267.03 -0.4 M143.54 140.51 C181.07 94.03, 222.08 49.54, 266.01 -0.51 M149.45 140.15 C189.29 96.22, 228.87 51, 271.15 1.23 M148.75 140.68 C179.1 105.66, 208.87 70.18, 269.68 0.77 M154.35 140.85 C178.04 109.53, 200.73 80.93, 275.82 -0.39 M153.88 139.52 C181.8 107.74, 210.59 74.36, 274.81 -0.86 M157.54 138.7 C186.17 109.47, 212.71 75.94, 281.14 1.22 M158.6 140.82 C207.15 84.92, 254.45 29.35, 280.12 1.03 M165.5 141.57 C196.86 102.49, 227.67 63.03, 286.88 -1.83 M165.08 139.66 C194.57 105.27, 225.73 68.19, 286.8 -1.09 M169.83 141.46 C199.42 104.39, 231.73 67.3, 292.26 2.15 M169.2 139.97 C204.56 97.12, 242.42 55.72, 292.25 -0.12 M175.13 140.46 C203.1 108.41, 232.2 75.44, 296.28 0.35 M174.3 141.01 C205.58 108.51, 233.63 75.9, 297.25 -0.84 M179.26 138.64 C225.02 86.41, 268.65 36.53, 301.52 1.4 M180.37 138.94 C218.99 92.97, 259.19 46.67, 301.73 0.65 M185.16 140.03 C212.86 108.89, 238.71 77.15, 306.49 -0.68 M185.77 139.33 C220.36 99.88, 255.28 60.48, 307.95 0.45 M193.18 140.52 C215.73 109.39, 238.13 81.71, 313.37 -0.57 M190.48 140.72 C236.87 88.15, 280.19 37.02, 312.26 -0.62 M196.88 141.84 C242.22 85.52, 289.3 32.49, 316.39 -1.69 M195.76 139.12 C230.05 100.14, 265.69 58.99, 318.27 0.55 M203.35 139.47 C227.18 110.14, 250.37 80.54, 321.62 1.77 M201.43 139.53 C242.9 93, 282.08 46.9, 322.61 -0.17 M205 140.58 C237.65 102.11, 268.68 67.57, 327.27 0.7 M207.57 140.54 C233.94 109.34, 261.13 79.41, 328.11 -0.57 M211.92 139.97 C253.94 91.4, 297.38 42.81, 335.52 1.08 M211.71 139.78 C242.92 105.89, 271.8 71.21, 333.56 0.42 M215.63 142.02 C267.23 84.52, 314.89 27.51, 340.82 -0.1 M216.58 140.5 C263.64 86.5, 309.88 32.21, 338.91 0.26 M221.46 140.59 C248.98 109.55, 272.62 84.11, 345.71 -0.9 M223.31 139.07 C268.13 87.1, 312.84 35.44, 344.97 -0.67 M228.29 141.01 C269.99 94.76, 312.12 45.59, 348.48 2.22 M227.18 139.56 C275.1 85.01, 323.77 30.44, 350 1.19 M232.94 139.98 C259.74 106.71, 288.77 76.5, 354.24 0.65 M232.8 139.22 C265.39 101.9, 296.4 66.54, 354.72 -0.61 M237.91 139.51 C271.69 102.54, 302.91 63.03, 360.06 1.77 M237.84 139.03 C264.31 110.84, 291.23 80.27, 360.25 1.27 M243.75 138.89 C276.99 101, 312.64 64.13, 364.58 -0.34 M244.26 139.24 C283.33 92.85, 321.47 49.64, 365.75 -0.82 M248.82 140.58 C290.39 94.71, 330.29 47.05, 368.52 0.54 M250.05 139.9 C285.46 100.28, 319.22 59.39, 369.77 1.56 M253.67 138.18 C294.25 93.19, 338.89 47.17, 368.36 9.45 M254.37 140.37 C285.13 107.56, 313.82 73.49, 369.84 8.24 M260.77 138.36 C294.32 100.71, 326.88 62.57, 369.29 13.39 M259.36 139.87 C284.85 112.34, 307.88 86.47, 370.33 13.1 M266.23 141.54 C289.4 108.51, 315.97 79.45, 369.8 19.61 M264.65 139.77 C306.5 92.76, 348.08 46.12, 368.95 21.01 M270.88 140.09 C306.84 100.23, 342.37 59.77, 368.62 28.44 M270.37 140.33 C298.24 108.61, 326.11 77, 368.63 26.27 M277.35 138.5 C298.37 116.68, 317.69 91.5, 367.84 31.56 M275.16 140.56 C310.85 98.24, 347.7 55.2, 368.45 31.39 M279.72 140.09 C304.88 110.11, 328.48 83.35, 369.96 40.17 M281.73 139.4 C310.61 105.28, 339.27 73.5, 369.71 38.94 M285.37 138.93 C318.41 102.94, 353.67 63.22, 367.58 43.62 M285.54 139.34 C312.74 108.08, 340.79 77.78, 369.45 44.75 M293.25 137.79 C307.88 120.65, 325.55 104, 369.19 49.43 M291.11 138.88 C314.86 114.16, 336.53 88.48, 369.19 51.48 M295.71 140.07 C319.81 111.16, 345.16 84.57, 368.85 57.93 M296.63 140.12 C325.43 108.34, 352.01 78.27, 368.48 57.91 M300.82 139.72 C328.71 109.05, 355.66 79.48, 371.25 62.42 M302.26 139.27 C318.62 120.78, 333.24 102.6, 368.9 62.68 M306.18 141.22 C326.09 121.4, 340.96 103.09, 370.85 67.46 M306.81 140.16 C330.97 114.27, 352.29 87.4, 369.07 69.14 M313.21 141.48 C334.25 114.16, 356.59 90.31, 371.49 73.42 M313.96 138.79 C333.33 118.27, 351.2 95.32, 369.21 75.54 M317 141.8 C333.17 124.18, 347.05 106.14, 370.23 82.55 M319 140.89 C329.13 127.68, 340.22 114.54, 368.84 81.67 M324.6 137.78 C340.99 119.64, 358.7 99.58, 369 87.56 M323.04 140.37 C339.92 122.69, 355.51 103.3, 369.37 87.03 M328.81 139.31 C339.88 124.19, 355.16 110.24, 369.69 93.88 M329.7 140.94 C342.38 125.73, 353.72 112.75, 369.08 93.68 M334.55 140.42 C339.67 132.06, 349.47 122.12, 367.26 99.81 M335.37 140.61 C342.38 129.91, 350.5 121.6, 369.15 100.03 M340.64 139.34 C349.98 129.51, 359.83 116.34, 371.35 107.22 M339.92 139.18 C347.02 129.15, 355.68 120.82, 369.18 106.07 M346.08 140.3 C349.97 133.19, 356.87 124.69, 368.17 113.49 M344.89 138.84 C354.69 129.95, 363.15 119.49, 369.92 110.93 M351.93 141.59 C356.09 134.76, 358.83 130.33, 370.08 118.18 M350.23 139.64 C353.84 135.42, 359.8 128.7, 368.87 118.17 M355.56 141.41 C360.15 135.8, 365.7 128.82, 368.72 123.25 M356.55 140.08 C359.52 136.29, 361.46 133.64, 370.23 123.53 M360.57 141.18 C364.2 138.05, 364.16 135.82, 369.79 130.84 M360.08 140.36 C363.03 138.14, 363.98 135.22, 369.67 129.89 M366.43 139.36 C366.72 138.6, 367.94 137.35, 369.76 135.29 M366.07 139.68 C367.39 138.25, 368.71 136.81, 369.73 135.54" stroke="#7950f2" stroke-width="0.5" fill="none"></path><path d="M-0.68 0.92 C81.57 -2.41, 163.5 -2.58, 366.62 0.76 M-0.5 0.11 C92.95 -0.03, 184.64 0.9, 367.16 0.36 M367.42 0.25 C365.62 36.46, 367.7 77.14, 367.52 138.7 M366.98 0.88 C366.71 39.67, 367.21 80.18, 367.81 139.62 M366.88 140.01 C222.52 140.84, 75.23 141.85, -0.73 138.77 M366.65 139.54 C259.01 140.99, 151.17 141.71, 0.46 139.99 M1.95 140.07 C0.83 96.98, 1.25 52.8, -1.63 1.93 M0.33 140.03 C-1.21 84.09, 0.2 28.69, -0.84 0.09" stroke="#000000" stroke-width="1" fill="none"></path></g><g transform="translate(592.08984375 299.55078125) rotate(0 60.5 9.5)"><text x="0" y="15" font-family="Helvetica, Segoe UI Emoji" font-size="16px" fill="#e67700" text-anchor="start" style="white-space: pre;" direction="ltr">alert-buttons(div)</text></g><g transform="translate(590.58984375 231.19140625) rotate(0 49.5 9.5)"><text x="0" y="15" font-family="Helvetica, Segoe UI Emoji" font-size="16px" fill="#5f3dc4" text-anchor="start" style="white-space: pre;" direction="ltr">alert-text (div)</text></g><g transform="translate(260.87109375 175.765625) rotate(0 134 11.5)"><text x="0" y="19" font-family="Helvetica, Segoe UI Emoji" font-size="20px" fill="#000000" text-anchor="start" style="white-space: pre;" direction="ltr">Tady je můj nějaký text v okně</text></g><g stroke-linecap="round" transform="translate(207.71484375 108.41796875) rotate(0 188.240234375 110.736328125)"><path d="M-0.49 0.72 C119.01 -1.03, 237.67 -1.49, 377.45 -0.28 M0.44 0.57 C98.59 0.65, 196.69 -0.07, 376.24 -0.26 M376.39 -0.24 C376.85 69.63, 376.73 139.13, 377.89 222.38 M375.81 -0.2 C377.48 50.47, 378.31 101.09, 376.87 222.22 M375.89 221.57 C269.2 218.74, 161.35 220.49, 0.03 222.21 M376.17 221.07 C260 222.85, 143.24 222.45, -0.51 221.04 M0.29 220.25 C-0.87 133.29, -0.6 48.63, 1.29 0.17 M0.18 221.83 C-1.94 167.37, -1.14 112.06, 0.19 -0.8" stroke="#364fc7" stroke-width="1" fill="none"></path></g><g stroke-linecap="round" transform="translate(208.5703125 260.7265625) rotate(0 187.3515625 30.638671875)"><path d="M0 0 C0 0, 0 0, 0 0 M0 0 C0 0, 0 0, 0 0 M0.14 6.9 C1.62 5.26, 2.32 3.4, 5.05 0.71 M-0.26 6.09 C1.78 4.36, 3.02 2.36, 5.34 0.02 M0.27 10.61 C3.52 8.11, 7.4 3.63, 11.5 0.62 M0.09 12.34 C1.88 9.2, 5.21 7.3, 11.36 0.24 M0.42 18.16 C3.38 13.47, 7.35 7.86, 13.66 1.75 M-0.96 18.77 C4.69 14.04, 7.71 9.88, 15.52 0.09 M0.35 26.08 C6.9 16.46, 13.39 8.15, 23.04 -0.4 M-0.4 23.43 C9.1 15, 16.49 5.49, 21.89 -0.07 M-1.05 31.33 C7.08 23.15, 12.09 19.25, 26.94 0.04 M-0.1 29.69 C9.12 20.15, 18.59 8.31, 26.67 1.18 M1.17 37.7 C12.92 23.8, 26.01 6.89, 32.64 0.01 M-0.64 37.1 C10.34 25.82, 19.86 13.62, 31.62 -0.6 M0.01 40.75 C11 29.93, 23.08 14.94, 36.3 -1.19 M-0.74 41.64 C12.07 27.91, 26.24 13.22, 36.52 -0.65 M0.51 47.15 C15.78 28.64, 31.21 11.78, 44.14 -0.88 M0.33 49.04 C10.75 36.94, 20.81 26.65, 42.95 -1.06 M0.31 56.44 C11.74 38.77, 24.03 26.5, 49.15 2.12 M-0.21 55.4 C17.73 32.33, 37.93 11.77, 46.54 0.22 M-1.74 60.14 C20.05 40.39, 38.78 19.05, 52.25 0.48 M-0.27 60.22 C10.68 47.72, 22.28 36.79, 52.8 -0.68 M2.31 63.78 C22.03 41.54, 41.58 18.35, 58.99 1.48 M3.45 63.3 C14.53 50.06, 25.36 37.48, 57.36 -0.53 M8.91 63.99 C24.39 46.62, 38.5 26.16, 64.75 0.03 M8.51 63.8 C29.25 39.77, 49.25 16.39, 63.78 -1.12 M12.2 61.55 C27.62 47.67, 43.53 33.22, 67.42 1.78 M14.55 64.17 C33.49 39.86, 52.36 17.85, 67.83 -0.18 M17.95 62.49 C32.04 46.81, 48.24 28.83, 72.56 0.12 M18.73 63.1 C35.5 44.15, 52.63 23.9, 75.23 0.48 M26.12 62.04 C45.6 40.22, 65.8 15.58, 78.13 -0.69 M24.97 64.5 C45.51 39.99, 66.41 15.88, 79.99 0.04 M27.55 63.84 C48.33 38.62, 68.51 17.65, 83.65 -0.5 M30.22 64.48 C46.82 44.84, 63.52 25.14, 84.15 0.54 M33.17 64.88 C52.32 42.75, 65.94 23.6, 90.91 -0.21 M34.19 63.29 C49.93 47.91, 62.87 31.01, 90.09 -0.07 M38.64 62.63 C54.37 47.08, 70.92 29.39, 97.11 -0.68 M39.69 64.31 C61.17 40.15, 83.68 13.89, 96.29 0.01 M45.57 64.09 C57.76 50.89, 70.33 35.13, 99.63 0.33 M46.37 64.04 C62.85 41.42, 82.93 21.01, 101.61 -0.63 M50.21 64.85 C66.87 46.5, 81.83 26.9, 105.11 1.17 M51.03 63.02 C71.52 39.84, 90.88 16.84, 107.08 -0.59 M56.62 62.12 C71.02 48.3, 85.1 32.18, 110.26 -0.56 M55.38 63.83 C77.42 38.74, 100.27 13.19, 112.18 -0.74 M61.36 61.88 C81.38 41.91, 102.47 17.8, 118.27 1.76 M60.33 64.07 C74.62 49.35, 87.47 35.87, 115.98 0.54 M66.05 64.58 C84.8 44.16, 99.28 24.37, 122.88 -0.93 M67.13 65.04 C89.08 37.59, 111.14 12.7, 122.68 0.55 M73.28 64.53 C82.82 49.97, 94.81 36.51, 126.26 -0.03 M70.89 62.98 C85.74 46.62, 99.22 31.84, 126.17 0.51 M76.66 63.21 C90.81 47.26, 104.84 29.76, 133.63 -1.47 M77.21 63.32 C95.77 43.47, 113.98 20.48, 132.16 -0.75 M83.26 65.02 C97.94 45.77, 113.58 26.71, 135.88 -0.67 M82.22 64.32 C99.95 42.94, 118.7 23.34, 137.51 1.22 M88.38 62.42 C108.73 38.72, 130.7 14.19, 144.78 0.56 M87.94 63.13 C108.34 41.17, 129.11 16.38, 142.91 -0.59 M94.68 62.94 C110.93 44.03, 123.92 24.76, 147.68 -0.95 M93.02 62.7 C106.44 47.96, 121.1 31.58, 148.25 -0.64 M98.89 62.28 C113.76 45.68, 124.22 32.31, 154.68 1.32 M98.01 63.75 C116.44 44.86, 133.61 24.58, 153.37 0.11 M103.01 63.32 C121.05 40.45, 139.43 19.49, 157.31 0.71 M104.19 63.77 C116.46 49.1, 129.45 36.39, 159.35 0.18 M108.95 65.26 C124.67 44.27, 143.08 26.12, 163.75 0.35 M108.81 64.97 C126.33 43.01, 144.47 23.31, 165.24 0.51 M113.8 62.6 C133.87 41.67, 153.9 17.91, 169.5 -1.68 M113.86 63.24 C134.37 41.35, 154.18 17.7, 169.44 0.47 M120.43 62.25 C132.57 48.07, 144.37 33.7, 176.54 -1.39 M119.41 64.15 C132.68 48.56, 145.31 33.93, 174.39 0.79 M124.73 62.59 C142.73 43.5, 160.24 25.1, 180.08 0.29 M124.33 63.87 C145.81 41.27, 164.68 16.6, 179.9 -0.44 M130.29 62.53 C140.68 50.41, 153.78 32.91, 187.68 0.47 M129.61 63.19 C142.08 49.85, 154.97 34.92, 185.9 -0.82 M135.55 64.55 C155.87 39.37, 174.15 17.59, 189.99 -0.56 M135.12 64.45 C150.31 47.84, 164.52 31.74, 189.76 0.35 M140.56 63.79 C160.43 42.99, 177.72 20.06, 195.89 -0.31 M140.91 63.53 C156.65 45.1, 173.21 24.5, 197.05 -1.02 M146.1 63.1 C163.22 44.55, 182.37 24.02, 203.23 -1.01 M145.96 62.82 C159.72 47.17, 174.4 30.46, 200.8 0.25 M152.41 62.13 C166.91 46.96, 182.13 28.3, 205.98 1.44 M151.5 63.18 C166.27 47.31, 181.36 27.88, 206.32 -0.49 M158.33 64.32 C169.84 52.59, 178.61 37.16, 212.93 -1.43 M157.76 62.88 C171.98 45.13, 188.3 27.07, 212.47 0.26 M160.05 62.05 C175.61 45.56, 191.31 30.48, 218.86 0.33 M161.28 63.66 C182.68 40.65, 203.48 16.77, 218.42 -0.86 M166.27 63.65 C179.34 48.88, 193.58 33.81, 223.28 0.22 M167.66 63.57 C181.82 45.41, 196.76 27.89, 222.94 -0.1 M172.84 62.47 C189.95 46.03, 208.51 26, 229.54 -1.68 M172.86 63.07 C193.34 39.12, 216.01 13.79, 227.22 0.31 M177.38 64.7 C192.92 47.66, 210.56 27.32, 231.59 -1.62 M177.32 64.63 C193.41 48.42, 207.23 29.65, 234.09 0.23 M181.19 62.69 C205.61 40.68, 225.53 15.69, 236.46 -0.42 M182.54 63.04 C204.18 39.87, 225.31 15.16, 238.18 1.23 M189.22 62.25 C200.88 51.18, 212.69 36.64, 242.26 1.89 M188.6 64.58 C204.09 44.73, 219.54 28, 244.48 0.88 M194.62 64.46 C208.18 48.61, 223.92 32.77, 250.12 1.39 M193.34 63.76 C214.09 41.58, 232.46 19.13, 247.9 -0.08 M199.43 64.73 C219.54 41.79, 236.85 17.09, 252.76 0.02 M198.58 64.26 C214.44 45.68, 231.5 27.37, 254.39 -0.99 M203.74 61.88 C216.24 49.07, 231.22 33.33, 259.15 0.71 M203.96 62.94 C223.99 41.36, 242.28 18.34, 259.23 -0.31 M210.42 65.21 C232.17 40.28, 252.57 14, 263.69 0.41 M209.19 64.79 C221.19 49.9, 234.68 35.88, 264.79 0.34 M214.27 63.51 C228.36 48.21, 239.25 35.23, 270.93 1.17 M215.83 62.88 C237.09 37.25, 259.16 13.42, 270.87 1.15 M218.71 64.18 C235.7 45.51, 251.15 28.42, 276.72 -0.85 M219.58 63.35 C239.53 44.39, 257.55 22.98, 276.38 0.12 M224.99 62.27 C237.07 48.29, 249.43 31.78, 280.92 -0.23 M226.06 63.38 C244.58 39.98, 264.94 17.39, 279.73 -0.03 M228.88 63.55 C250.51 42.06, 268.99 18.39, 284.61 -1.31 M231.09 64.16 C245.42 46.23, 261.68 28.87, 286.53 0.16 M237.81 65.53 C257.98 40.93, 276.37 15.4, 290.71 0.95 M236.47 62.82 C251.42 47.48, 265.28 29.19, 291.92 -0.16 M239.62 64.6 C255.06 48.11, 264.83 33.34, 297.23 -2.07 M240.27 63.48 C253.12 48.27, 266.6 33.69, 296.34 -0.18 M247.71 65.03 C268.29 39.62, 289.86 13.08, 301.94 -1.46 M246.6 63.12 C267.68 39.91, 288.47 14.33, 301.77 -0.48 M253.73 62.06 C267.98 45.91, 281.61 28.35, 307.54 -1.85 M251.88 64.63 C272.42 41.42, 291.1 19.79, 307.58 -1.01 M256.78 62.93 C272.56 44.33, 288.2 27.34, 314.36 1.77 M256.66 62.73 C277.32 41.55, 296.63 17.86, 312.78 -0.19 M264.08 62.02 C282.71 43.09, 300.46 20.89, 317.58 1.03 M261.87 62.97 C279.84 43.6, 296.57 22.81, 317.77 -0.88 M268.19 61.81 C289.62 41.77, 306.58 18.12, 323.84 1.29 M268.6 63.66 C281.14 47.35, 295.28 31.14, 322.68 0.55 M271.64 64.02 C286.8 48.94, 300.05 34.95, 328.5 -1.32 M272.39 62.91 C293.95 37.84, 315.72 13.25, 329.09 0.21 M280.2 62.63 C300.7 38.05, 319.68 16.52, 332.3 -0.84 M279.04 62.48 C296.99 42.35, 315.02 20.38, 334.39 -0.36 M283.48 62.97 C296.96 48.86, 311.37 31.49, 338.54 -0.4 M282.82 62.9 C304.07 39.31, 325.86 15.98, 339.45 -0.21 M288.19 62.77 C310.54 36.91, 332.34 13.95, 345.78 -1.17 M290.32 63.29 C304.69 45.84, 319.84 27.05, 345.03 0.01 M294.76 63.22 C307.14 51.06, 319.58 37.02, 348.38 -0.54 M294.71 64.44 C307.45 49.69, 320.98 33.95, 348.8 0.72 M297.95 62.78 C312.96 44.67, 329.73 30.61, 356.42 -0.83 M298.84 63.48 C320.68 41.47, 340.7 18.05, 354.95 0.65 M306.73 64.5 C320.1 44.93, 339.07 24.4, 361.74 0.06 M304.84 63.09 C320.79 47.19, 335.46 29.08, 360.75 1.1 M310.34 65.34 C324.15 48.78, 333.48 35.17, 364.42 0.44 M310.64 63.76 C323.85 47.31, 339.64 30.7, 366.67 -0.41 M316.74 63.95 C336.24 40.92, 357.8 17.72, 371.5 -0.12 M316.16 63.44 C337.71 39.36, 359.6 15.04, 371.65 -0.11 M319.35 65.79 C333.79 48.46, 350.32 29.88, 375.46 -0.93 M320.52 63.6 C334.91 46.07, 349.35 29.41, 375.27 -0.32 M328.23 62.13 C337.04 52.2, 345.51 40.22, 374.36 7.85 M326.87 64.13 C344.08 42.86, 362.22 21.37, 376.32 7.6 M332.73 63.15 C344.04 46.63, 360.8 32.49, 374.76 10.72 M331.63 63.32 C342.09 50.11, 353.81 37.76, 375.5 12.59 M336.73 64.99 C348.52 47.63, 363.32 33.75, 377.34 18.99 M337.33 62.85 C345.15 53.68, 355.3 42.77, 375.49 18.99 M341.3 62.82 C354.2 48.1, 365.85 34.48, 376 25.3 M341.82 63.74 C352.94 51.96, 363.63 38.38, 375.71 24.94 M347.87 61.9 C357.86 51, 368.09 39.5, 375.83 32.95 M347.12 63.33 C355.22 55.12, 362.71 44.68, 374.86 30.61 M352.98 62.63 C360.37 57.99, 366.63 48.45, 377.1 39.21 M352.65 63.25 C357.31 59.23, 362.27 52.41, 374.53 37.44 M359.38 63.62 C365.01 57.38, 367.77 52.4, 375.74 45.1 M358.03 64.37 C361.22 59.58, 367.14 53.25, 376.26 42.82 M362.82 62.84 C369.44 58.8, 373.65 52.39, 376.06 50.45 M362.42 64.74 C368.59 58.37, 372.7 52.83, 375.86 49.13 M367.93 63.93 C370.03 60.71, 373.17 58.15, 375.36 55.95 M368.92 63.15 C371.05 61.48, 373.09 59.32, 374.95 56.14" stroke="#fab005" stroke-width="0.5" fill="none"></path><path d="M0.01 0.38 C116.13 -2.63, 232.12 -3.23, 375.32 0.32 M0.23 0.05 C134.93 1.67, 269.15 1.84, 374.41 -0.39 M376.14 -0.04 C376.01 16.69, 375.73 32.68, 376.57 62.8 M373.79 -0.9 C375.33 14.35, 374.2 27.43, 374.04 61.58 M374.3 61.61 C245.85 59.88, 117.61 59.17, -0.26 60.89 M374.78 61.74 C271.22 59.76, 167.62 59.35, 0.19 61.51 M-0.21 59.55 C2.38 38.52, 0.71 14.49, 1.81 -1.13 M0.16 60.47 C-0.92 48.52, -1.33 34.77, -0.7 0.48" stroke="#000000" stroke-width="1" fill="none"></path></g><g stroke-linecap="round" transform="translate(236.83203125 277.296875) rotate(0 46.51953125 16.5)"><path d="M0 0 C0 0, 0 0, 0 0 M0 0 C0 0, 0 0, 0 0 M-1.02 7.04 C1.05 4.98, 2.9 2.12, 5.11 0.81 M-0.4 6.73 C1.35 4.53, 3.93 2.28, 5.28 0.43 M0.8 12.59 C4.11 7.61, 6.48 2.88, 11.87 -1.53 M0 12.66 C3.85 7.97, 8.23 3, 11.13 -0.37 M-1.56 16.55 C3.64 13.01, 8.78 6.55, 15.52 -0.86 M0.57 18.66 C6.22 11.38, 9.99 6.3, 15.6 0.87 M1.59 22.61 C6.65 13.39, 16.69 6.01, 20.43 -0.48 M0.9 24.51 C4.59 18.49, 10.13 12.91, 21.07 -0.92 M-1.73 31.71 C7.1 23.27, 17.14 12.44, 28.01 -0.59 M-0.66 31.18 C5.74 23.4, 11.64 18.08, 25.43 -0.43 M1.44 35.84 C10.73 23.75, 18.19 14.65, 32.58 1.23 M1.01 33.95 C12.39 23.05, 22.4 10.73, 31.68 0.39 M8.44 34.52 C15.19 24.29, 20.79 18.83, 38.32 0.73 M7.75 33.85 C13.66 26.36, 22.87 17.06, 36.33 -0.66 M13.08 34.66 C20.67 26.12, 25.43 17.88, 44.48 0.09 M11.71 35.36 C23.08 23.21, 33.89 10.25, 43.18 -0.17 M18.01 35.27 C26.34 26.07, 34.85 18.71, 46.1 -1.07 M18.38 34.11 C26.66 26.13, 33.56 16.34, 47.61 -0.06 M24.12 34.35 C29.58 24.89, 40.5 14.52, 55.11 -0.6 M23.57 33.62 C32.57 23.07, 42.36 13.02, 52.36 0.31 M27.11 34.65 C32.99 27.8, 39.71 19.86, 57.11 1.25 M28.53 33.97 C39.95 22.15, 50.18 9.25, 57.8 1.16 M33.43 35.02 C43.3 22.47, 55.98 8.75, 64.5 -1.15 M33.54 35.08 C39.91 25.77, 47.17 17.83, 63.71 0.25 M38.24 35.71 C47.72 23.39, 57.06 10.38, 69.2 0.32 M38.44 34.91 C50.8 22.55, 61.16 9.68, 69.6 -0.15 M43.98 34.19 C56.02 21.14, 68.89 8.66, 75.81 0.53 M44.79 35.15 C52.97 24.91, 60.22 15.34, 74.43 0.67 M51.01 34.19 C55.17 24.87, 64.69 15.05, 78.31 0.21 M49.1 35.24 C62.29 20.85, 73.44 6.46, 78.95 0.9 M56.84 32.79 C63.68 23.68, 77.1 11.4, 85.26 -1.05 M55.67 35.29 C64.92 24.21, 73.27 13.09, 85.43 0.11 M58.79 33.46 C69.68 21.29, 80.61 9.86, 88.47 -1.64 M59.83 34.08 C67.97 26.71, 75.36 17.29, 89.97 0.25 M65.17 33.15 C73.55 26.3, 77.65 19.9, 94.88 0.54 M64.75 34.01 C71.54 27.03, 80.03 18.94, 94.98 1.15 M70.02 35.31 C75.04 29.02, 80.43 21.72, 95.25 7.2 M70.68 35.07 C77.45 26.67, 83.72 20.05, 93.44 7.43 M76.23 33 C78.74 29.35, 85.24 24.4, 93.23 11.65 M75.79 33.84 C79.67 29.22, 84.36 25.04, 94.54 13.49 M82.26 33.93 C86.81 30.52, 88.77 26.15, 95.5 17.96 M81.4 35.41 C84.06 29.46, 88.52 25.48, 93.5 20.46 M85.91 35.04 C88.65 30.47, 92.91 29.07, 93.65 25.39 M86.77 34.37 C89.75 30.97, 91.95 28.23, 95.02 25.56" stroke="#12b886" stroke-width="0.5" fill="none"></path><path d="M-0.63 -1.6 C20.92 -0.24, 45.38 1.03, 94.89 0.74 M-0.88 -0.57 C35.07 -0.59, 67.64 -0.79, 93.57 -0.79 M93.81 1.07 C93.46 11.4, 91.85 20.77, 91.09 31.91 M92.62 -0.45 C93.38 13.53, 92.59 24.58, 93.72 33.95 M92.35 34.41 C61.92 34.65, 34.53 34.39, -1.98 33.57 M93.65 32.43 C61.97 32.31, 29.39 32.01, -0.18 32.1 M0.08 33.77 C-1.68 21.41, 0.83 13.27, 1.47 -0.98 M0.09 32.69 C-0.92 23.99, -0.16 13.51, -0.46 -0.49" stroke="#000000" stroke-width="1" fill="none"></path></g><g stroke-linecap="round" transform="translate(449.1796875 276.89453125) rotate(0 51.5 16.5)"><path d="M0 0 C0 0, 0 0, 0 0 M0 0 C0 0, 0 0, 0 0 M-0.27 5.83 C0.33 4.3, 2.59 2.77, 4.9 0.32 M-0.02 6.68 C1.06 5.27, 2.01 3.09, 5.31 0.35 M1.25 13.1 C2.59 6.66, 6.1 4.29, 10.4 -0.7 M-0.02 12.55 C3.49 8.21, 6.01 5.42, 10.51 -0.19 M-1.34 16.7 C4.5 13.8, 8.2 12.19, 15.25 2.09 M0.34 17.77 C4.77 14.03, 7.44 9.82, 15.93 -0.49 M0.91 23.81 C6.29 18.85, 9.15 12.05, 21.54 0.62 M0.86 23.38 C7.22 16.02, 15.7 7.16, 20.58 -0.28 M1.05 31.57 C9.64 20.46, 17.12 8.22, 27.76 1.73 M-0.78 30.87 C8.28 19.59, 17.63 11.57, 26 -0.26 M0.42 35.35 C8.31 28.62, 14.03 19.04, 31.32 1.86 M2.13 33.98 C11.76 24.31, 20.86 14.13, 31.14 0.56 M5.46 34.24 C17.38 25.04, 25.25 16, 38.26 -1.15 M7.65 34.61 C14.36 27.07, 22.38 18.18, 37.05 0.36 M12.79 35.73 C20.44 23.47, 28.77 16.68, 41.61 1.82 M13.25 35.18 C19.77 25.07, 28.82 15.7, 43.09 -0.93 M18.78 33.34 C28.31 21.12, 39.12 9.7, 47.14 -0.8 M17.23 34.76 C27.21 22.82, 38.61 9.74, 47.68 -0.12 M22.08 34.37 C35.29 19.8, 46.84 8.05, 51.73 0.55 M22.19 34.48 C31.4 25.05, 37.6 16.48, 52.46 -0.24 M29.27 34.56 C39.12 21.9, 49.1 9.09, 57.17 0.62 M28.58 34.76 C37.05 25.14, 47.14 13.53, 59.05 1.02 M31.96 34.26 C41.16 25.34, 49.37 17.23, 64.43 1.19 M32.67 35.07 C44.59 23.3, 53.74 10.57, 63.28 -0.18 M37.86 36.67 C49.87 19.15, 61.58 6.96, 67.54 -0.94 M37.62 34.75 C47.84 25.31, 56.21 13.83, 67.86 -0.29 M42.48 36.46 C53.8 19.42, 68.22 8.95, 75.85 -0.02 M43.96 35.28 C52.93 26.04, 60.49 15.9, 74.64 0.15 M48.91 33.77 C57.85 21.85, 68.57 9.98, 79.87 -1.44 M49.36 34.82 C55.13 27.99, 62.96 20.38, 79.34 0.06 M56.13 34.12 C63.43 25.06, 73.73 11.72, 85.55 0.25 M55.84 33.7 C62.73 24.34, 72.01 16.68, 85.71 0.35 M58.85 34.34 C69.61 24.24, 77.73 14.49, 88.14 1.24 M59.5 35 C68.69 25.51, 76.18 15.51, 90.29 -0.58 M63.79 34.51 C72.99 23.24, 82.21 16.01, 94.47 -1.58 M65.69 34.08 C71.81 25.82, 79.02 18.38, 96.65 -0.26 M69.51 35.92 C79.51 25.41, 90.21 12.29, 100.78 1.32 M70.79 35.06 C77.74 26.56, 82.66 19.77, 100.05 -0.68 M74.73 32.97 C88.28 20.64, 96.4 10.89, 105.68 -0.47 M75.39 34.4 C85.02 24.95, 93.02 14.15, 104.4 1.82 M82.13 35.15 C88.41 23.88, 98 15.23, 104.03 6.67 M82.03 35.42 C88.68 27.33, 96.02 17.25, 104.94 8.04 M86.65 34.94 C93.53 26.29, 98.6 20.8, 104.41 14 M86.4 33.83 C93.58 26.59, 98.35 21.21, 103.71 14.14 M91.35 33.78 C96.28 31.93, 98.92 29.62, 103.75 18.68 M91.07 34.25 C95.67 30.37, 99.06 25, 105.02 19.5 M96.43 34.11 C100.6 30.96, 102.81 28.53, 105.56 25.7 M97.01 34 C99.61 31.95, 100.25 30.03, 104.49 25.46" stroke="#fa5252" stroke-width="0.5" fill="none"></path><path d="M0.2 -0.69 C42.11 -1.07, 82.96 1.22, 104.3 -1.98 M-0.29 0.61 C33.26 -0.06, 67.25 -1.21, 102.28 -0.18 M103.04 0.08 C103.78 5.38, 101.4 14.8, 103.24 34.47 M102.85 0.09 C102.63 7.53, 103.22 16.58, 102.09 32.54 M101.01 32.66 C76.94 33.85, 52.71 30.9, 1.63 34.06 M103.62 33.54 C68.79 33.88, 35.77 32.97, -0.33 32.86 M-1.42 31.11 C1.38 18.23, 1.72 4.86, 0.36 0.3 M-0.81 32.65 C0.6 20.47, 0.56 10.33, 0.72 0.74" stroke="#000000" stroke-width="1" fill="none"></path></g><g transform="translate(541.0065307617188 308.08203125) rotate(0 0.00004999999998744897 0.00004999999998744897)" stroke="none"><path fill="#5c940d" d="M 1.57,-1.57 Q 1.57,-1.57 1.77,-1.27 1.98,-0.98 2.09,-0.64 2.20,-0.29 2.19,0.05 2.18,0.41 2.05,0.75 1.93,1.09 1.70,1.37 1.48,1.65 1.18,1.84 0.87,2.04 0.52,2.12 0.18,2.21 -0.17,2.18 -0.53,2.15 -0.86,2.01 -1.19,1.87 -1.46,1.63 -1.73,1.39 -1.90,1.07 -2.08,0.76 -2.15,0.41 -2.21,0.05 -2.17,-0.29 -2.12,-0.65 -1.96,-0.97 -1.80,-1.29 -1.54,-1.54 -1.29,-1.80 -0.97,-1.96 -0.65,-2.12 -0.29,-2.17 0.06,-2.21 0.41,-2.15 0.76,-2.08 1.07,-1.90 1.39,-1.73 1.63,-1.46 1.87,-1.19 2.01,-0.86 2.15,-0.53 2.18,-0.17 2.21,0.18 2.12,0.52 2.03,0.87 1.84,1.18 1.65,1.48 1.37,1.70 1.09,1.93 0.75,2.05 0.41,2.18 0.05,2.19 -0.30,2.20 -0.64,2.09 -0.98,1.98 -1.27,1.77 -1.57,1.56 -1.57,1.57 -1.57,1.57 -1.73,1.35 -1.90,1.14 -2.01,0.90 -2.12,0.66 -2.16,0.39 -2.21,0.13 -2.20,-0.13 -2.18,-0.40 -2.10,-0.65 -2.02,-0.91 -1.88,-1.14 -1.74,-1.36 -1.55,-1.55 -1.36,-1.74 -1.14,-1.88 -0.91,-2.02 -0.65,-2.10 -0.40,-2.18 -0.13,-2.20 0.13,-2.21 0.39,-2.16 0.66,-2.12 0.90,-2.01 1.14,-1.90 1.35,-1.73 1.57,-1.57 1.57,-1.57 L 1.57,-1.57 Z"></path></g><g transform="translate(241.83203125 282.296875) rotate(0 41.5 11.5)"><text x="41.5" y="19" font-family="Helvetica, Segoe UI Emoji" font-size="20px" fill="#000000" text-anchor="middle" style="white-space: pre;" direction="ltr">OK</text></g><g transform="translate(454.1796875 281.89453125) rotate(0 46.5 11.5)"><text x="46.5" y="19" font-family="Helvetica, Segoe UI Emoji" font-size="20px" fill="#000000" text-anchor="middle" style="white-space: pre;" direction="ltr">Cancel</text></g><g transform="translate(695.2109375 24.265625) rotate(0 31 16)"><text x="0" y="26" font-family="Helvetica, Segoe UI Emoji" font-size="28px" fill="#000000" text-anchor="start" style="white-space: pre;" direction="ltr">body</text></g><g transform="translate(590.25390625 111.7421875) rotate(0 42 11.5)"><text x="0" y="19" font-family="Helvetica, Segoe UI Emoji" font-size="20px" fill="#364fc7" text-anchor="start" style="white-space: pre;" direction="ltr">alert (div)</text></g><g transform="translate(921.4510498046875 192.41537475585938) rotate(0 0.00004999999998744897 0.00004999999998744897)" stroke="none"><path fill="#000000" d="M 1.57,-1.57 Q 1.57,-1.57 1.77,-1.27 1.98,-0.98 2.09,-0.64 2.20,-0.29 2.19,0.05 2.18,0.41 2.05,0.75 1.93,1.09 1.70,1.37 1.48,1.65 1.18,1.84 0.87,2.04 0.52,2.12 0.18,2.21 -0.17,2.18 -0.53,2.15 -0.86,2.01 -1.19,1.87 -1.46,1.63 -1.73,1.39 -1.90,1.07 -2.08,0.76 -2.15,0.41 -2.21,0.05 -2.17,-0.29 -2.12,-0.65 -1.96,-0.97 -1.80,-1.29 -1.54,-1.54 -1.29,-1.80 -0.97,-1.96 -0.65,-2.12 -0.29,-2.17 0.06,-2.21 0.41,-2.15 0.76,-2.08 1.07,-1.90 1.39,-1.73 1.63,-1.46 1.87,-1.19 2.01,-0.86 2.15,-0.53 2.18,-0.17 2.21,0.18 2.12,0.52 2.03,0.87 1.84,1.18 1.65,1.48 1.37,1.70 1.09,1.93 0.75,2.05 0.41,2.18 0.05,2.19 -0.30,2.20 -0.64,2.09 -0.98,1.98 -1.27,1.77 -1.57,1.56 -1.57,1.57 -1.57,1.57 -1.73,1.35 -1.90,1.14 -2.01,0.90 -2.12,0.66 -2.16,0.39 -2.21,0.13 -2.20,-0.13 -2.18,-0.40 -2.10,-0.65 -2.02,-0.91 -1.88,-1.14 -1.74,-1.36 -1.55,-1.55 -1.36,-1.74 -1.14,-1.88 -0.91,-2.02 -0.65,-2.10 -0.40,-2.18 -0.13,-2.20 0.13,-2.21 0.39,-2.16 0.66,-2.12 0.90,-2.01 1.14,-1.90 1.35,-1.73 1.57,-1.57 1.57,-1.57 L 1.57,-1.57 Z"></path></g></svg>